<svg width="14" height="14" viewBox="0 0 14 14" fill="none" xmlns="http://www.w3.org/2000/svg">
<path d="M13.9971 6.12499V0L11.9409 2.05624C10.6765 0.787501 8.93087 0 6.9971 0C3.12961 0 0.00585938 3.13249 0.00585938 7.00002C0.00585938 10.8676 3.12961 14 6.9971 14C10.2565 14 12.9865 11.7688 13.7609 8.75004H11.9409C11.219 10.7888 9.28524 12.25 6.99714 12.25C4.09652 12.25 1.74714 9.90065 1.74714 7.00002C1.74714 4.09939 4.09652 1.75002 6.99714 1.75002C8.44528 1.75002 9.74466 2.35377 10.694 3.30316L7.87213 6.12503H13.9971V6.12499Z" fill="currentColor"/>
</svg>
