<svg width="37" height="23" viewBox="0 0 37 23" fill="none" xmlns="http://www.w3.org/2000/svg">
    <path d="M25.9255 0.42334C23.0673 0.424104 20.462 1.50749 18.4985 3.28689C16.5334 1.50978 13.9296 0.425632 11.0745 0.425632C11.0508 0.425632 11.0263 0.425632 11.0034 0.425632C4.92335 0.465362 0 5.41163 0 11.5001C0 17.613 4.96155 22.5738 11.0737 22.5738C13.9289 22.5738 16.5326 21.4912 18.4969 19.7126C18.0867 19.342 17.7154 18.9317 17.3647 18.5024H19.6514C19.3068 18.9249 18.9309 19.3206 18.5267 19.6889H18.5252C18.516 19.6988 18.5061 19.7049 18.4969 19.7133C20.4628 21.4935 23.0696 22.5784 25.9293 22.5777C32.0453 22.5754 37.0015 17.6153 37 11.5001C37 11.4978 37 11.4963 37 11.4948C37.0008 5.37954 32.0415 0.421812 25.9255 0.42334ZM17.4915 4.43063H19.5964C19.9066 4.80653 20.1946 5.20229 20.4559 5.61639H16.7007C16.9429 5.22063 17.2088 4.8134 17.4915 4.43063ZM16.0467 6.77923H21.0946C21.2742 7.16277 21.4331 7.55929 21.5721 7.96575H15.4485C15.5096 7.85115 15.7235 7.38968 16.0467 6.77923ZM4.52071 14.3209L5.19229 10.0867L3.67723 14.3209H2.86508L2.75964 10.0867L2.04223 14.3209H0.904601L1.8474 8.70533H3.56798L3.62833 12.1511L4.79041 8.70533H6.65691L5.7271 14.3209H4.52071ZM8.54328 14.3117L8.58225 13.8632C8.56391 13.8655 8.20482 14.4049 7.3728 14.4049C6.93731 14.4049 6.23441 14.1673 6.23441 13.1344C6.23441 11.821 7.30557 11.3855 8.32553 11.3855C8.48598 11.3855 8.83208 11.4145 8.83208 11.4145C8.83208 11.4145 8.87105 11.3343 8.87105 11.1173C8.87105 10.7605 8.55016 10.7116 8.11084 10.7116C7.33689 10.7116 6.82576 10.9187 6.82576 10.9187L6.9969 9.90255C6.9969 9.90255 7.61729 9.64278 8.42486 9.64278C8.84278 9.64278 10.0446 9.68709 10.0446 11.0646L9.58158 14.3117H8.54328ZM12.9311 12.8815C12.9311 14.4485 11.4129 14.3812 11.1478 14.3812C10.1584 14.3812 9.85281 14.2445 9.82454 14.2368L9.98193 13.2054C9.98346 13.1962 10.4785 13.385 11.0294 13.385C11.3472 13.385 11.7598 13.3536 11.7598 12.9739C11.7598 12.4055 10.2837 12.5415 10.2837 11.1914C10.2837 10.0003 11.1685 9.65195 12.041 9.65195C12.7148 9.65195 13.1289 9.74439 13.1289 9.74439L12.9799 10.785C12.9799 10.785 12.3405 10.7323 12.1747 10.7323C11.7552 10.7323 11.5268 10.824 11.5268 11.1173C11.526 11.7072 12.9311 11.4184 12.9311 12.8815ZM14.754 13.2925C14.8587 13.2925 14.9771 13.2566 15.0581 13.2566L14.9106 14.2582C14.7922 14.2911 14.4568 14.4103 14.0267 14.4133C13.4773 14.4179 13.0869 14.1108 13.0869 13.414C13.0869 12.9464 13.757 9.09345 13.7829 9.06824H14.9618L14.8419 9.75738H15.4302L15.2797 10.8675H14.6554L14.3239 12.9128C14.2986 13.0755 14.3437 13.2925 14.754 13.2925ZM17.3471 9.6275C18.6413 9.6275 19.0287 10.5749 19.0287 11.3519C19.0287 11.6629 18.8728 12.4269 18.8728 12.4269H16.4769C16.4769 12.4269 16.2553 13.3704 17.5213 13.3704C18.1149 13.3704 18.7735 13.0801 18.7735 13.0801L18.5657 14.2162C18.5657 14.2162 18.1852 14.4103 17.3204 14.4103C16.3829 14.4103 15.2835 14.0137 15.2835 12.3482C15.2842 10.9049 16.1613 9.6275 17.3471 9.6275ZM20.4696 17.3617H16.541C16.3019 16.9797 16.0788 16.5877 15.887 16.1759H21.1152C20.9227 16.5854 20.7073 16.9812 20.4696 17.3617ZM20.2061 14.3293H18.9958L19.7316 9.75891H20.8295L20.7241 10.4213C20.7241 10.4213 21.1152 9.70084 21.6432 9.70084C21.7967 9.70084 21.8709 9.71612 21.8709 9.71612C21.7142 10.0355 21.5759 10.3281 21.4323 11.0837C20.6133 10.7934 20.5506 12.3772 20.2061 14.3293ZM24.8169 14.2582C24.8169 14.2582 24.1828 14.4202 23.7855 14.4202C22.3782 14.4202 21.6638 13.4491 21.6638 11.9784C21.6638 9.76044 22.9879 8.57926 24.3486 8.57926C24.9636 8.57926 25.6764 8.86806 25.6764 8.86806L25.4839 10.1172C25.4839 10.1172 25.0018 9.7803 24.4021 9.7803C23.5998 9.7803 22.8801 10.5459 22.8801 11.9371C22.8801 12.6225 23.2155 13.2612 24.0529 13.2612C24.451 13.2612 25.0278 12.9716 25.0278 12.9716L24.8169 14.2582ZM27.6553 14.314L27.695 13.8625C27.6759 13.8648 27.3168 14.4042 26.4855 14.4042C26.0501 14.4042 25.3472 14.1665 25.3472 13.1336C25.3472 11.8202 26.4183 11.3847 27.4375 11.3847C27.598 11.3847 27.9448 11.4138 27.9448 11.4138C27.9448 11.4138 27.9846 11.3343 27.9846 11.1173C27.9846 10.7605 27.6637 10.7116 27.2236 10.7116C26.4496 10.7116 25.9393 10.9187 25.9393 10.9187L26.1104 9.90255C26.1104 9.90255 26.7308 9.64278 27.5391 9.64278C27.9563 9.64278 29.1589 9.68709 29.1581 11.0646L28.6951 14.3117C28.6943 14.314 27.6553 14.314 27.6553 14.314ZM30.1055 14.3293H28.8953L29.631 9.75891H30.7297L30.6242 10.4213C30.6242 10.4213 31.0162 9.70084 31.5441 9.70084C31.6977 9.70084 31.771 9.71612 31.771 9.71612C31.6152 10.0355 31.4754 10.3281 31.3325 11.0837C30.5127 10.7934 30.45 12.3772 30.1055 14.3293ZM33.7185 14.3171L33.7697 13.8961C33.7697 13.8961 33.3785 14.3896 32.6711 14.3896C31.6908 14.3896 31.2102 13.443 31.2102 12.4758C31.2102 10.9798 32.1103 9.67563 33.1906 9.67563C33.8859 9.67716 34.3297 10.2907 34.3297 10.2907L34.5849 8.71297L35.7669 8.71067L34.8653 14.3171H33.7185ZM36.0503 14.1589C36.019 14.2154 35.9747 14.259 35.9181 14.2926C35.8624 14.3239 35.8028 14.34 35.7401 14.34C35.679 14.34 35.6202 14.3239 35.5636 14.2926C35.5071 14.259 35.4628 14.2154 35.4315 14.1589C35.3994 14.1016 35.3841 14.0435 35.3841 13.9817C35.3841 13.919 35.4001 13.8594 35.4315 13.8029C35.4628 13.7463 35.5094 13.7005 35.5652 13.6699C35.6232 13.6386 35.6805 13.6226 35.7401 13.6226C35.8013 13.6226 35.8593 13.6386 35.9159 13.6699C35.9739 13.7013 36.0182 13.7448 36.0503 13.8029C36.0832 13.8602 36.0977 13.9198 36.0977 13.9817C36.0977 14.0435 36.0824 14.1024 36.0503 14.1589Z"
          fill="#382F2D"/>
    <path d="M35.9556 17.5382C35.9479 17.5328 35.9411 17.5244 35.9288 17.5198C35.9166 17.5152 35.8975 17.5129 35.8677 17.5129H35.7959V17.6275H35.8723C35.9082 17.6275 35.9319 17.6245 35.9456 17.6115C35.9586 17.6008 35.9647 17.5878 35.9647 17.5695C35.9647 17.5573 35.9617 17.5488 35.9556 17.5382Z"
          fill="#382F2D"/>
    <path d="M36.2024 17.4694C36.1696 17.4098 36.1245 17.3678 36.0672 17.3364C36.0099 17.3051 35.9518 17.2891 35.8922 17.2891C35.8311 17.2891 35.773 17.3051 35.7165 17.3364C35.66 17.3678 35.6134 17.4113 35.582 17.4694C35.5492 17.5259 35.5347 17.5855 35.5347 17.6466C35.5347 17.7077 35.5507 17.7681 35.582 17.8239C35.6149 17.8804 35.6592 17.9263 35.715 17.9576C35.7715 17.9889 35.8311 18.005 35.8938 18.005C35.9549 18.005 36.0145 17.9889 36.0702 17.9576C36.126 17.9263 36.1711 17.8804 36.2024 17.8239C36.2345 17.7681 36.2498 17.7085 36.2498 17.6466C36.2498 17.5847 36.2337 17.5251 36.2024 17.4694ZM35.9824 17.8453L35.9488 17.7849C35.922 17.7375 35.8999 17.7062 35.8831 17.694C35.8724 17.6864 35.8556 17.6802 35.8342 17.6802H35.7983V17.8445H35.7356V17.4587H35.8685C35.9144 17.4587 35.9472 17.4625 35.9656 17.4701C35.9862 17.4778 36.0038 17.4885 36.0145 17.5076C36.0267 17.5251 36.032 17.5442 36.032 17.5641C36.032 17.5924 36.0214 17.6161 36.0023 17.6382C35.9824 17.6581 35.9549 17.6711 35.922 17.6734C35.9358 17.6779 35.9465 17.6856 35.9549 17.694C35.9709 17.7093 35.9893 17.7345 36.0122 17.7696L36.0596 17.8453H35.9824Z"
          fill="#382F2D"/>
    <path d="M8.42115 12.2617C7.55704 12.2617 7.38208 12.6498 7.38208 12.973C7.38208 13.1396 7.47758 13.4177 7.84355 13.4177C8.55332 13.4177 8.70078 12.4871 8.67786 12.2892C8.64424 12.2823 8.62285 12.2625 8.42115 12.2617Z"
          fill="#382F2D"/>
    <path d="M17.3518 10.6824C16.7092 10.6824 16.5854 11.4135 16.5854 11.4907H17.8942C17.8942 11.4319 18.0172 10.6824 17.3518 10.6824Z"
          fill="#382F2D"/>
    <path d="M33.3946 10.8101C32.8758 10.8101 32.4655 11.4121 32.4663 12.3266C32.4663 12.8844 32.665 13.2419 33.0898 13.2419C33.7285 13.2419 34.0364 12.4084 34.0364 11.7872C34.0364 11.1019 33.8186 10.8101 33.3946 10.8101Z"
          fill="#382F2D"/>
    <path d="M35.9969 13.8334C35.9701 13.786 35.9327 13.7493 35.8853 13.7226C35.8379 13.6958 35.7898 13.6829 35.7394 13.6829C35.6905 13.6829 35.6408 13.6966 35.5934 13.7226C35.5461 13.747 35.5086 13.7852 35.4819 13.8334C35.4552 13.8815 35.4414 13.9327 35.4414 13.9824C35.4414 14.0335 35.4552 14.084 35.4804 14.1306C35.5086 14.178 35.5445 14.2139 35.5919 14.2421C35.6393 14.2681 35.6882 14.2834 35.7394 14.2834C35.7906 14.2834 35.841 14.2681 35.8868 14.2421C35.9342 14.2154 35.9709 14.1787 35.9984 14.1306C36.0251 14.0832 36.0373 14.0335 36.0373 13.9824C36.0373 13.9319 36.0236 13.8815 35.9969 13.8334ZM35.8311 14.1787L35.7967 14.1191C35.7699 14.071 35.7485 14.0404 35.7325 14.029C35.7195 14.019 35.7042 14.0144 35.6821 14.0144H35.6469V14.178H35.5828V13.7929H35.7165C35.7615 13.7929 35.7951 13.7967 35.8143 13.8051C35.8334 13.812 35.8502 13.825 35.8631 13.8418C35.8761 13.8586 35.8807 13.8777 35.8807 13.8983C35.8807 13.9266 35.87 13.9503 35.8502 13.9717C35.8303 13.9938 35.8028 14.003 35.7707 14.0068C35.786 14.0129 35.7959 14.0198 35.8036 14.0267C35.8196 14.0427 35.8379 14.0656 35.8601 14.1023L35.9075 14.1787H35.8311Z"
          fill="#382F2D"/>
    <path d="M27.5347 12.2617C26.6706 12.2617 26.4956 12.6498 26.4956 12.973C26.4956 13.1396 26.5903 13.4177 26.9571 13.4177C27.6669 13.4177 27.8135 12.4871 27.7914 12.2892C27.757 12.2823 27.7356 12.2625 27.5347 12.2617Z"
          fill="#382F2D"/>
    <path d="M35.8051 13.8715C35.799 13.8638 35.7906 13.8577 35.7792 13.8524C35.7662 13.8485 35.7471 13.8447 35.7165 13.8447V13.8455H35.647V13.9616H35.7226C35.7585 13.9616 35.7822 13.957 35.7967 13.9456C35.8082 13.9341 35.8151 13.9196 35.8151 13.9028C35.8151 13.8898 35.812 13.8822 35.8051 13.8715Z"
          fill="#382F2D"/>
</svg>
