<svg width="20" height="20" viewBox="0 0 20 20" fill="none" xmlns="http://www.w3.org/2000/svg">
<path d="M10 20C4.48593 20 0 15.5141 0 10C0 4.48593 4.48593 0 10 0C15.5141 0 20 4.48593 20 10C20 15.5141 15.5141 20 10 20ZM10 1.42853C5.27374 1.42853 1.42853 5.27374 1.42853 10C1.42853 14.7263 5.27374 18.5715 10 18.5715C14.7263 18.5715 18.5715 14.7263 18.5715 10C18.5715 5.27374 14.7263 1.42853 10 1.42853Z" fill="currentColor"/>
<path d="M13.5715 14.2852C13.3887 14.2852 13.2059 14.2155 13.0665 14.0759L5.92367 6.9331C5.64458 6.65402 5.64458 6.20205 5.92367 5.92312C6.2026 5.64419 6.65472 5.64404 6.93365 5.92312L14.0764 13.0659C14.3555 13.345 14.3555 13.797 14.0764 14.0759C13.937 14.2155 13.7543 14.2852 13.5715 14.2852Z" fill="currentColor"/>
<path d="M6.42858 14.2853C6.24578 14.2853 6.06313 14.2156 5.92367 14.076C5.64458 13.797 5.64458 13.3449 5.92367 13.066L13.0665 5.92318C13.3455 5.6441 13.7975 5.6441 14.0764 5.92318C14.3554 6.20211 14.3555 6.65423 14.0764 6.93316L6.93365 14.076C6.79418 14.2156 6.61138 14.2853 6.42858 14.2853Z" fill="currentColor"/>
</svg>
