<svg width="18" height="18" viewBox="0 0 18 18" fill="none" xmlns="http://www.w3.org/2000/svg">
  <path
    d="M17.6093 8.1927C17.9636 7.84741 18.0887 7.34064 17.9359 6.86955C17.7827 6.39847 17.3837 6.06218 16.8935 5.99082L12.5352 5.35754C12.3495 5.33051 12.1891 5.21409 12.1063 5.04576L10.1578 1.09686C9.93897 0.653172 9.49492 0.377441 9.00004 0.377441C8.50553 0.377441 8.06148 0.653172 7.84269 1.09686L5.89383 5.04612C5.81093 5.21445 5.65018 5.33087 5.46456 5.3579L1.10621 5.99118C0.616381 6.06218 0.217022 6.39883 0.0638381 6.86991C-0.0889853 7.341 0.0360847 7.84777 0.39039 8.19306L3.54381 11.2668C3.67826 11.398 3.73989 11.5869 3.70817 11.7714L2.96424 16.1118C2.89828 16.4938 2.99848 16.8654 3.24574 17.1585C3.62996 17.6151 4.30072 17.7543 4.83705 17.4724L8.73476 15.423C8.89768 15.3376 9.10277 15.3383 9.26532 15.423L13.1634 17.4724C13.353 17.5722 13.5552 17.6227 13.7639 17.6227C14.1449 17.6227 14.506 17.4533 14.7543 17.1585C15.002 16.8654 15.1018 16.4931 15.0358 16.1118L14.2916 11.7714C14.2598 11.5865 14.3215 11.398 14.4559 11.2668L17.6093 8.1927Z"
    fill="#FEC057" />
</svg>
