<svg width="18" height="18" viewBox="0 0 18 18" fill="none" xmlns="http://www.w3.org/2000/svg">
<path d="M17.6092 8.19306C17.9635 7.84777 18.0886 7.341 17.9358 6.86991C17.7826 6.39883 17.3836 6.06254 16.8934 5.99118L12.535 5.3579C12.3494 5.33087 12.189 5.21445 12.1061 5.04612L10.1576 1.09686C9.93885 0.653172 9.4948 0.377441 8.99993 0.377441C8.50541 0.377441 8.06136 0.653172 7.84258 1.09686L5.89372 5.04612C5.81082 5.21445 5.65007 5.33087 5.46444 5.3579L1.10609 5.99154C0.616265 6.06254 0.217266 6.39883 0.0640822 6.86991C-0.0887412 7.341 0.0363289 7.84777 0.390634 8.19306L3.54406 11.2668C3.6785 11.398 3.74013 11.5869 3.70842 11.7714L2.96412 16.1121C2.8805 16.5998 3.07694 17.0831 3.47738 17.3744C3.87746 17.6659 4.39828 17.7038 4.83693 17.4728L8.73465 15.4233C8.90081 15.3361 9.09904 15.3361 9.2652 15.4233L13.1633 17.4728C13.3536 17.573 13.5598 17.6223 13.7648 17.6223C14.0312 17.6223 14.2965 17.5391 14.5228 17.3744C14.9233 17.0831 15.1197 16.5998 15.0361 16.1121L14.2914 11.7718C14.2597 11.5869 14.3214 11.3984 14.4558 11.2672L17.6092 8.19306ZM13.5814 11.8936L14.3257 16.234C14.3632 16.4524 14.2785 16.6611 14.099 16.7915C13.9191 16.9217 13.6953 16.9375 13.4988 16.8352L9.60077 14.7854C9.41298 14.687 9.20609 14.6372 8.99993 14.6372C8.79376 14.6372 8.58723 14.687 8.39908 14.7857L4.50173 16.8352C4.30457 16.9375 4.08074 16.9217 3.90125 16.7915C3.72175 16.6611 3.63741 16.4527 3.67453 16.234L4.41883 11.8936C4.49055 11.4748 4.35179 11.0473 4.04758 10.751L0.893798 7.67692C0.734847 7.52194 0.680782 7.30351 0.749625 7.09266C0.818107 6.88145 0.990033 6.73655 1.20954 6.70447L5.56753 6.07119C5.98815 6.01028 6.35183 5.74645 6.53961 5.36511L8.48847 1.41585C8.58651 1.21689 8.7779 1.09831 8.99957 1.09831C9.22159 1.09831 9.41262 1.21689 9.51102 1.41585L11.4599 5.36511C11.6477 5.74645 12.011 6.01028 12.4316 6.07119L16.79 6.70447C17.0095 6.73655 17.1814 6.88145 17.2499 7.09266C17.3183 7.30351 17.2646 7.52194 17.1057 7.67692L13.9523 10.7507C13.6481 11.0473 13.5093 11.4744 13.5814 11.8936Z" fill="black"/>
</svg>
