<svg width="22" height="18" viewBox="0 0 22 18" fill="none" xmlns="http://www.w3.org/2000/svg">
    <path d="M15.762 0.000420791C13.9268 -0.00927173 12.1821 0.787253 11 2.17455C9.82523 0.777772 8.07572 -0.0210186 6.23794 0.000420791C2.79281 0.000420791 0 2.76042 0 6.16508C0 11.9996 10.3038 17.6963 10.7215 17.9165C10.8901 18.0278 11.1099 18.0278 11.2785 17.9165C11.6962 17.6963 22 12.0821 22 6.16508C22 2.76042 19.2071 0.000420791 15.762 0.000420791ZM11 16.8157C9.38479 15.88 1.11393 10.8987 1.11393 6.16508C1.11393 3.36841 3.40803 1.10121 6.23799 1.10121C7.97098 1.07871 9.59278 1.94256 10.5266 3.38543C10.7162 3.64381 11.0819 3.70138 11.3434 3.51396C11.3933 3.47814 11.4372 3.43479 11.4734 3.38543C13.0221 1.04474 16.1977 0.387964 18.5662 1.91849C20.0162 2.85545 20.8889 4.45298 20.886 6.16502C20.8861 10.9537 12.6152 15.9075 11 16.8157Z"
          fill="#382F2D"/>
</svg>
