<svg width="16" height="16" viewBox="0 0 16 16" fill="none" xmlns="http://www.w3.org/2000/svg">
<path d="M14.8228 2.66663C14.8228 3.86328 13.8528 4.83337 12.6561 4.83337C11.4595 4.83337 10.4895 3.86328 10.4895 2.66663C10.4895 1.47009 11.4595 0.5 12.6561 0.5C13.8528 0.5 14.8228 1.47009 14.8228 2.66663Z" fill="currentColor"/>
<path d="M12.6561 5.33337C11.1854 5.33337 9.9895 4.13733 9.9895 2.66663C9.9895 1.19604 11.1854 0 12.6561 0C14.1268 0 15.3228 1.19604 15.3228 2.66663C15.3228 4.13733 14.1268 5.33337 12.6561 5.33337ZM12.6561 1C11.7368 1 10.9895 1.74805 10.9895 2.66663C10.9895 3.58533 11.7368 4.33337 12.6561 4.33337C13.5754 4.33337 14.3228 3.58533 14.3228 2.66663C14.3228 1.74805 13.5754 1 12.6561 1Z" fill="currentColor"/>
<path d="M14.8228 13.3334C14.8228 14.5299 13.8528 15.5 12.6561 15.5C11.4595 15.5 10.4895 14.5299 10.4895 13.3334C10.4895 12.1367 11.4595 11.1666 12.6561 11.1666C13.8528 11.1666 14.8228 12.1367 14.8228 13.3334Z" fill="currentColor"/>
<path d="M12.6561 16C11.1854 16 9.9895 14.804 9.9895 13.3334C9.9895 11.8627 11.1854 10.6666 12.6561 10.6666C14.1268 10.6666 15.3228 11.8627 15.3228 13.3334C15.3228 14.804 14.1268 16 12.6561 16ZM12.6561 11.6666C11.7368 11.6666 10.9895 12.4147 10.9895 13.3334C10.9895 14.252 11.7368 15 12.6561 15C13.5754 15 14.3228 14.252 14.3228 13.3334C14.3228 12.4147 13.5754 11.6666 12.6561 11.6666Z" fill="currentColor"/>
<path d="M5.48962 8C5.48962 9.19665 4.51953 10.1666 3.32288 10.1666C2.12634 10.1666 1.15625 9.19665 1.15625 8C1.15625 6.80334 2.12634 5.83337 3.32288 5.83337C4.51953 5.83337 5.48962 6.80334 5.48962 8Z" fill="currentColor"/>
<path d="M3.32288 10.6666C1.85229 10.6666 0.65625 9.4707 0.65625 8C0.65625 6.5293 1.85229 5.33337 3.32288 5.33337C4.79358 5.33337 5.98962 6.5293 5.98962 8C5.98962 9.4707 4.79358 10.6666 3.32288 10.6666ZM3.32288 6.33337C2.40356 6.33337 1.65625 7.0813 1.65625 8C1.65625 8.9187 2.40356 9.66663 3.32288 9.66663C4.24231 9.66663 4.98962 8.9187 4.98962 8C4.98962 7.0813 4.24231 6.33337 3.32288 6.33337Z" fill="currentColor"/>
<path d="M4.89707 7.68006C4.66501 7.68006 4.43967 7.55933 4.31699 7.34339C4.13498 7.02406 4.24704 6.61671 4.56638 6.43397L10.7523 2.90736C11.0716 2.72401 11.479 2.83607 11.6617 3.15662C11.8437 3.47596 11.7317 3.88331 11.4123 4.06605L5.22629 7.59266C5.12229 7.65199 5.00901 7.68006 4.89707 7.68006Z" fill="currentColor"/>
<path d="M11.0822 13.1801C10.9701 13.1801 10.8568 13.152 10.7528 13.0927L4.56678 9.56604C4.24744 9.38403 4.1355 8.97668 4.31751 8.65661C4.49878 8.33667 4.90674 8.224 5.22681 8.40735L11.4128 11.934C11.7322 12.116 11.8441 12.5233 11.6621 12.8434C11.5388 13.0593 11.3135 13.1801 11.0822 13.1801Z" fill="currentColor"/>
</svg>
