<svg width="34" height="24" viewBox="0 0 34 24" fill="none" xmlns="http://www.w3.org/2000/svg">
    <path d="M33.1247 0.983154H0.875283C0.391289 0.983154 0 1.37505 0 1.85844V22.1423C0 22.6257 0.391289 23.0175 0.875283 23.0175H33.1247C33.6087 23.0175 34 22.6257 34 22.1423V1.85844C34 1.37505 33.6087 0.983154 33.1247 0.983154ZM2.63247 7.64169H6.26123C6.75064 7.66035 7.14494 7.81626 7.28098 8.33939L8.07018 12.1349C7.29483 10.1496 5.42627 8.49771 2.60237 7.81386L2.63247 7.64169ZM7.02334 16.2982L4.92723 9.13701C6.43399 10.1014 7.71742 11.6316 8.16951 12.6965L8.41392 13.5809L10.7063 7.72416H13.1864L9.5005 16.2964L7.02334 16.2982ZM15.0092 16.3042H12.6687L14.1322 7.71513H16.4739L15.0092 16.3042ZM19.0823 16.4331C18.033 16.4222 17.0223 16.2145 16.4745 15.9743L16.8038 14.0522L17.1053 14.1889C17.8741 14.5097 18.3719 14.6397 19.3092 14.6397C19.9816 14.6397 20.7022 14.3767 20.7088 13.8012C20.713 13.4249 20.4072 13.1565 19.4958 12.7351C18.6073 12.3245 17.431 11.6358 17.4455 10.4024C17.4581 8.73308 19.0883 7.56825 21.4017 7.56825C22.3083 7.56825 23.0349 7.75486 23.4984 7.92883L23.1824 9.79077L22.9711 9.69144C22.5401 9.51807 21.9856 9.35072 21.2193 9.36276C20.3031 9.36276 19.8781 9.74442 19.8781 10.1014C19.8733 10.5035 20.3741 10.7684 21.1928 11.1669C22.5431 11.7797 23.1673 12.5232 23.1589 13.5002C23.1408 15.2821 21.5438 16.4331 19.0823 16.4331ZM29.2257 16.3078C29.2257 16.3078 29.012 15.3206 28.9409 15.0208C28.6002 15.0208 26.2115 15.0172 25.9431 15.0172C25.8522 15.2489 25.4512 16.3078 25.4512 16.3078H22.9933L26.4686 8.43691C26.7154 7.87767 27.1338 7.72416 27.6948 7.72416H29.5032L31.3976 16.3072L29.2257 16.3078Z"
          fill="#382F2D"/>
    <path d="M28.0174 10.781L27.8597 10.0405C27.7405 10.3638 27.5352 10.8833 27.5484 10.8604C27.5484 10.8604 26.8086 12.7669 26.616 13.2611H28.5598C28.4659 12.8307 28.0174 10.781 28.0174 10.781Z"
          fill="#382F2D"/>
</svg>
