<svg width="46" height="51" viewBox="0 0 46 51" fill="none" xmlns="http://www.w3.org/2000/svg">
<path fill-rule="evenodd" clip-rule="evenodd" d="M46 8.67604V43.1538C46 44.2372 45.1419 45.1154 44.0833 45.1154H42.1667C41.1081 45.1154 40.25 44.2372 40.25 43.1538V7.84615C40.25 6.76282 39.3919 5.88462 38.3333 5.88462H9.58333C8.52478 5.88462 7.66667 5.0064 7.66667 3.92308V1.96154C7.66667 0.87822 8.52478 0 9.58333 0H35.3518H44.0833C45.1419 0 46 0.87822 46 1.96154V8.67604ZM1.91667 51C0.85813 51 0 50.1218 0 49.0385V9.80769C0 8.72437 0.858111 7.84615 1.91667 7.84615H27.6851H36.4167C37.4752 7.84615 38.3333 8.72437 38.3333 9.80769V16.145V49.0385C38.3333 50.1218 37.4752 51 36.4167 51H1.91667ZM7.66667 41.1923C7.66667 42.2757 8.5248 43.1538 9.58333 43.1538H28.75C29.8086 43.1538 30.6667 42.2757 30.6667 41.1923C30.6667 40.1089 29.8086 39.2308 28.75 39.2308H9.58333C8.5248 39.2308 7.66667 40.1089 7.66667 41.1923ZM28.75 17.6538C29.5882 18.3155 29.7434 19.5473 29.0969 20.4051L19.9176 32.5827C19.5994 33.0048 19.1272 33.2761 18.6095 33.3344C18.0918 33.3926 17.5731 33.2328 17.1729 32.8915L11.7453 28.2626C10.9322 27.569 10.8223 26.3323 11.5 25.5C12.1777 24.6677 13.3862 24.5553 14.1994 25.2489L16.5692 27.2699C17.4041 27.9819 18.6499 27.8417 19.3137 26.961L26.0617 18.0089C26.7084 17.1511 27.9118 16.9922 28.75 17.6538Z" fill="#FEC057"/>
</svg>
