<svg width="21" height="21" viewBox="0 0 21 21" fill="none" xmlns="http://www.w3.org/2000/svg">
<path d="M19.6077 20.3097L18.0116 5.11044C17.9781 4.79225 17.7099 4.55064 17.39 4.55064H14.3901V3.86668C14.3901 1.73467 12.6554 0 10.5234 0C8.39123 0 6.65657 1.73467 6.65657 3.86668V4.55064H3.65666C3.33671 4.55064 3.06851 4.79225 3.03502 5.11044L1.43894 20.3097C1.42052 20.4858 1.47771 20.6616 1.59611 20.7933C1.71467 20.9248 1.88354 21 2.06058 21H18.9859C19.1631 21 19.332 20.9248 19.4504 20.7933C19.5691 20.6616 19.6261 20.4858 19.6077 20.3097ZM7.90658 3.86668C7.90658 2.42392 9.08049 1.25001 10.5234 1.25001C11.9662 1.25001 13.1401 2.42392 13.1401 3.86668V4.55064H7.90658V3.86668ZM2.75464 19.7499L4.21951 5.80066H6.65657V7.17804C6.65657 7.52315 6.93646 7.80305 7.28157 7.80305C7.62668 7.80305 7.90658 7.52315 7.90658 7.17804V5.80066H13.1401V7.17804C13.1401 7.52315 13.42 7.80305 13.7651 7.80305C14.1102 7.80305 14.3901 7.52315 14.3901 7.17804V5.80066H16.8271L18.292 19.7499H2.75464Z" fill="currentColor"/>
</svg>
