<svg width="18" height="18" viewBox="0 0 18 18" fill="none" xmlns="http://www.w3.org/2000/svg">
  <path
    d="M12.2996 2.1866C11.92 2.02077 11.4779 2.19406 11.312 2.57364C11.1462 2.95323 11.3195 3.39536 11.6991 3.56119C14.1394 4.62728 15.7501 7.04088 15.7501 9.74997C15.7501 13.4778 12.7276 16.5 9.00004 16.5C5.27197 16.5 2.24999 13.478 2.24999 9.74997C2.24999 7.04148 3.86016 4.62787 6.29974 3.56108C6.67925 3.39515 6.8524 2.95295 6.68643 2.57343C6.52049 2.19392 6.07829 2.02077 5.69877 2.18675C2.71789 3.49017 0.75 6.44002 0.75 9.74994C0.75 14.3064 4.44358 18 9.00008 18C13.5561 18 17.2502 14.3062 17.2502 9.74994C17.2502 6.43924 15.2815 3.48926 12.2996 2.1866Z"
    fill="currentColor" />
  <path
    d="M8.99999 8.25008C9.41421 8.25008 9.74999 7.9143 9.74999 7.50008V0.750029C9.75002 0.33578 9.41421 0 8.99999 0C8.58578 0 8.25 0.33578 8.25 0.749994V7.50005C8.25 7.91426 8.58578 8.25008 8.99999 8.25008Z"
    fill="currentColor" />
</svg>
