<svg width="22" height="24" viewBox="0 0 22 24" fill="none" xmlns="http://www.w3.org/2000/svg">
    <path d="M18.8261 8.52566C18.8261 4.36935 15.3222 1 11 1C6.67777 1 3.17391 4.36935 3.17391 8.52566C2.05652 8.65945 1 9.36184 1 10.9924V14.9225C1 16.7621 2.33913 17.431 3.6087 17.431H4.86957C5.10967 17.431 5.30435 17.2438 5.30435 17.0129V8.91866C5.30435 8.68777 5.10967 8.50057 4.86957 8.50057H4.04348C4.04348 4.8061 7.15804 1.8111 11 1.8111C14.842 1.8111 17.9565 4.8061 17.9565 8.50057H17.1304C16.8903 8.50057 16.6957 8.68777 16.6957 8.91866V17.0004C16.6957 17.2313 16.8903 17.4185 17.1304 17.4185H17.9565C17.8348 20.2908 16.4 20.9639 13.5348 21.0851V20.805C13.5348 20.3432 13.1455 19.9688 12.6652 19.9688H9.93044C9.45016 19.9688 9.06087 20.3432 9.06087 20.805V22.1638C9.06087 22.6257 9.45016 23 9.93044 23H12.6739C13.1542 23 13.5435 22.6257 13.5435 22.1638V21.9213C16.3 21.8001 18.6826 21.2524 18.8261 17.3934C19.9435 17.2596 21 16.5572 21 14.9266V10.9966C21 9.35766 19.9478 8.65945 18.8261 8.52566ZM4.43478 9.30749V16.5823H3.58696C2.94348 16.5823 1.84783 16.3649 1.84783 14.9099V10.9799C1.84783 9.53744 2.93043 9.30749 3.58696 9.30749H4.43478ZM12.6739 21.5325V22.168H9.93044V20.8092H12.6739V21.5325ZM20.1304 14.9225C20.1304 16.3649 19.0478 16.5948 18.3913 16.5948H17.5652V9.33675H18.413C19.0565 9.33675 20.1522 9.55416 20.1522 11.0091L20.1304 14.9225Z"
          fill="#382F2D" stroke="#382F2D"/>
</svg>
