<svg xmlns="http://www.w3.org/2000/svg" xmlns:xlink="http://www.w3.org/1999/xlink"><symbol id="icon-arrow" viewBox="0 0 8 12">
<path d="M1 1L6 6L1 11" stroke="currentColor" stroke-width="1.5" fill="none"/>
</symbol><symbol id="icon-basket" viewBox="0 0 16 19">
<path d="M0.630338 19H15.3728C15.4595 19.0001 15.5452 18.9822 15.6247 18.9473C15.7041 18.9125 15.7756 18.8614 15.8345 18.7973C15.8932 18.7328 15.9381 18.6568 15.9662 18.5739C15.9943 18.4911 16.0051 18.4032 15.9978 18.316L14.9111 4.69933C14.8985 4.54029 14.8267 4.39193 14.7103 4.2839C14.5938 4.17588 14.4412 4.11615 14.283 4.11666H12.0845C12.0845 3.02486 11.6543 1.97777 10.8886 1.20574C10.1229 0.433719 9.08443 0 8.00157 0C6.91871 0 5.88021 0.433719 5.11451 1.20574C4.34882 1.97777 3.91866 3.02486 3.91866 4.11666H1.72016C1.56192 4.11615 1.40932 4.17588 1.29286 4.2839C1.17641 4.39193 1.10468 4.54029 1.09202 4.69933L0.00219709 18.316C-0.00505998 18.4032 0.00570648 18.4911 0.0338166 18.5739C0.0619267 18.6568 0.10677 18.7328 0.165514 18.7973C0.2248 18.8618 0.296745 18.9131 0.376771 18.948C0.456798 18.9829 0.543152 19.0006 0.630338 19ZM8.00157 1.26667C8.75124 1.26667 9.47021 1.56693 10.0003 2.10141C10.5304 2.63589 10.8282 3.3608 10.8282 4.11666H5.17494C5.17494 3.3608 5.47274 2.63589 6.00284 2.10141C6.53294 1.56693 7.2519 1.26667 8.00157 1.26667Z" fill="currentColor"/>
</symbol><symbol id="icon-favourite" viewBox="0 0 18 16">
<path d="M12.8962 0.549177C11.3946 0.541152 9.96719 1.2006 8.99998 2.34915C8.03882 1.19275 6.60741 0.531427 5.10377 0.549177C2.28503 0.549177 0 2.8342 0 5.65295C0 10.4834 8.43037 15.1998 8.77215 15.3821C8.91005 15.4742 9.0899 15.4742 9.22785 15.3821C9.56963 15.1998 18 10.5517 18 5.65295C18 2.8342 15.7149 0.549177 12.8962 0.549177Z" fill="currentColor"/>
</symbol></svg>