<svg xmlns="http://www.w3.org/2000/svg" xmlns:xlink="http://www.w3.org/1999/xlink"><symbol id="icon-arrow" viewBox="0 0 8 12">
<path d="M1 1L6 6L1 11" stroke="currentColor" stroke-width="1.5" fill="none"/>
</symbol><symbol id="icon-basket" viewBox="0 0 16 19">
<path d="M0.630338 19H15.3728C15.4595 19.0001 15.5452 18.9822 15.6247 18.9473C15.7041 18.9125 15.7756 18.8614 15.8345 18.7973C15.8932 18.7328 15.9381 18.6568 15.9662 18.5739C15.9943 18.4911 16.0051 18.4032 15.9978 18.316L14.9111 4.69933C14.8985 4.54029 14.8267 4.39193 14.7103 4.2839C14.5938 4.17588 14.4412 4.11615 14.283 4.11666H12.0845C12.0845 3.02486 11.6543 1.97777 10.8886 1.20574C10.1229 0.433719 9.08443 0 8.00157 0C6.91871 0 5.88021 0.433719 5.11451 1.20574C4.34882 1.97777 3.91866 3.02486 3.91866 4.11666H1.72016C1.56192 4.11615 1.40932 4.17588 1.29286 4.2839C1.17641 4.39193 1.10468 4.54029 1.09202 4.69933L0.00219709 18.316C-0.00505998 18.4032 0.00570648 18.4911 0.0338166 18.5739C0.0619267 18.6568 0.10677 18.7328 0.165514 18.7973C0.2248 18.8618 0.296745 18.9131 0.376771 18.948C0.456798 18.9829 0.543152 19.0006 0.630338 19ZM8.00157 1.26667C8.75124 1.26667 9.47021 1.56693 10.0003 2.10141C10.5304 2.63589 10.8282 3.3608 10.8282 4.11666H5.17494C5.17494 3.3608 5.47274 2.63589 6.00284 2.10141C6.53294 1.56693 7.2519 1.26667 8.00157 1.26667Z" fill="currentColor"/>
</symbol><symbol id="icon-favourite" viewBox="0 0 18 16">
<path d="M12.8962 0.549177C11.3946 0.541152 9.96719 1.2006 8.99998 2.34915C8.03882 1.19275 6.60741 0.531427 5.10377 0.549177C2.28503 0.549177 0 2.8342 0 5.65295C0 10.4834 8.43037 15.1998 8.77215 15.3821C8.91005 15.4742 9.0899 15.4742 9.22785 15.3821C9.56963 15.1998 18 10.5517 18 5.65295C18 2.8342 15.7149 0.549177 12.8962 0.549177Z" fill="currentColor"/>
</symbol><symbol id="icon-share" viewBox="0 0 16 16">
<path d="M14.8228 2.66663C14.8228 3.86328 13.8528 4.83337 12.6561 4.83337C11.4595 4.83337 10.4895 3.86328 10.4895 2.66663C10.4895 1.47009 11.4595 0.5 12.6561 0.5C13.8528 0.5 14.8228 1.47009 14.8228 2.66663Z" fill="currentColor"/>
<path d="M12.6561 5.33337C11.1854 5.33337 9.9895 4.13733 9.9895 2.66663C9.9895 1.19604 11.1854 0 12.6561 0C14.1268 0 15.3228 1.19604 15.3228 2.66663C15.3228 4.13733 14.1268 5.33337 12.6561 5.33337ZM12.6561 1C11.7368 1 10.9895 1.74805 10.9895 2.66663C10.9895 3.58533 11.7368 4.33337 12.6561 4.33337C13.5754 4.33337 14.3228 3.58533 14.3228 2.66663C14.3228 1.74805 13.5754 1 12.6561 1Z" fill="currentColor"/>
<path d="M14.8228 13.3334C14.8228 14.5299 13.8528 15.5 12.6561 15.5C11.4595 15.5 10.4895 14.5299 10.4895 13.3334C10.4895 12.1367 11.4595 11.1666 12.6561 11.1666C13.8528 11.1666 14.8228 12.1367 14.8228 13.3334Z" fill="currentColor"/>
<path d="M12.6561 16C11.1854 16 9.9895 14.804 9.9895 13.3334C9.9895 11.8627 11.1854 10.6666 12.6561 10.6666C14.1268 10.6666 15.3228 11.8627 15.3228 13.3334C15.3228 14.804 14.1268 16 12.6561 16ZM12.6561 11.6666C11.7368 11.6666 10.9895 12.4147 10.9895 13.3334C10.9895 14.252 11.7368 15 12.6561 15C13.5754 15 14.3228 14.252 14.3228 13.3334C14.3228 12.4147 13.5754 11.6666 12.6561 11.6666Z" fill="currentColor"/>
<path d="M5.48962 8C5.48962 9.19665 4.51953 10.1666 3.32288 10.1666C2.12634 10.1666 1.15625 9.19665 1.15625 8C1.15625 6.80334 2.12634 5.83337 3.32288 5.83337C4.51953 5.83337 5.48962 6.80334 5.48962 8Z" fill="currentColor"/>
<path d="M3.32288 10.6666C1.85229 10.6666 0.65625 9.4707 0.65625 8C0.65625 6.5293 1.85229 5.33337 3.32288 5.33337C4.79358 5.33337 5.98962 6.5293 5.98962 8C5.98962 9.4707 4.79358 10.6666 3.32288 10.6666ZM3.32288 6.33337C2.40356 6.33337 1.65625 7.0813 1.65625 8C1.65625 8.9187 2.40356 9.66663 3.32288 9.66663C4.24231 9.66663 4.98962 8.9187 4.98962 8C4.98962 7.0813 4.24231 6.33337 3.32288 6.33337Z" fill="currentColor"/>
<path d="M4.89707 7.68006C4.66501 7.68006 4.43967 7.55933 4.31699 7.34339C4.13498 7.02406 4.24704 6.61671 4.56638 6.43397L10.7523 2.90736C11.0716 2.72401 11.479 2.83607 11.6617 3.15662C11.8437 3.47596 11.7317 3.88331 11.4123 4.06605L5.22629 7.59266C5.12229 7.65199 5.00901 7.68006 4.89707 7.68006Z" fill="currentColor"/>
<path d="M11.0822 13.1801C10.9701 13.1801 10.8568 13.152 10.7528 13.0927L4.56678 9.56604C4.24744 9.38403 4.1355 8.97668 4.31751 8.65661C4.49878 8.33667 4.90674 8.224 5.22681 8.40735L11.4128 11.934C11.7322 12.116 11.8441 12.5233 11.6621 12.8434C11.5388 13.0593 11.3135 13.1801 11.0822 13.1801Z" fill="currentColor"/>
</symbol><symbol id="icon-star-empty" viewBox="0 0 18 18">
<path d="M17.6092 8.19306C17.9635 7.84777 18.0886 7.341 17.9358 6.86991C17.7826 6.39883 17.3836 6.06254 16.8934 5.99118L12.535 5.3579C12.3494 5.33087 12.189 5.21445 12.1061 5.04612L10.1576 1.09686C9.93885 0.653172 9.4948 0.377441 8.99993 0.377441C8.50541 0.377441 8.06136 0.653172 7.84258 1.09686L5.89372 5.04612C5.81082 5.21445 5.65007 5.33087 5.46444 5.3579L1.10609 5.99154C0.616265 6.06254 0.217266 6.39883 0.0640822 6.86991C-0.0887412 7.341 0.0363289 7.84777 0.390634 8.19306L3.54406 11.2668C3.6785 11.398 3.74013 11.5869 3.70842 11.7714L2.96412 16.1121C2.8805 16.5998 3.07694 17.0831 3.47738 17.3744C3.87746 17.6659 4.39828 17.7038 4.83693 17.4728L8.73465 15.4233C8.90081 15.3361 9.09904 15.3361 9.2652 15.4233L13.1633 17.4728C13.3536 17.573 13.5598 17.6223 13.7648 17.6223C14.0312 17.6223 14.2965 17.5391 14.5228 17.3744C14.9233 17.0831 15.1197 16.5998 15.0361 16.1121L14.2914 11.7718C14.2597 11.5869 14.3214 11.3984 14.4558 11.2672L17.6092 8.19306ZM13.5814 11.8936L14.3257 16.234C14.3632 16.4524 14.2785 16.6611 14.099 16.7915C13.9191 16.9217 13.6953 16.9375 13.4988 16.8352L9.60077 14.7854C9.41298 14.687 9.20609 14.6372 8.99993 14.6372C8.79376 14.6372 8.58723 14.687 8.39908 14.7857L4.50173 16.8352C4.30457 16.9375 4.08074 16.9217 3.90125 16.7915C3.72175 16.6611 3.63741 16.4527 3.67453 16.234L4.41883 11.8936C4.49055 11.4748 4.35179 11.0473 4.04758 10.751L0.893798 7.67692C0.734847 7.52194 0.680782 7.30351 0.749625 7.09266C0.818107 6.88145 0.990033 6.73655 1.20954 6.70447L5.56753 6.07119C5.98815 6.01028 6.35183 5.74645 6.53961 5.36511L8.48847 1.41585C8.58651 1.21689 8.7779 1.09831 8.99957 1.09831C9.22159 1.09831 9.41262 1.21689 9.51102 1.41585L11.4599 5.36511C11.6477 5.74645 12.011 6.01028 12.4316 6.07119L16.79 6.70447C17.0095 6.73655 17.1814 6.88145 17.2499 7.09266C17.3183 7.30351 17.2646 7.52194 17.1057 7.67692L13.9523 10.7507C13.6481 11.0473 13.5093 11.4744 13.5814 11.8936Z" fill="black"/>
</symbol><symbol id="icon-star" viewBox="0 0 18 18">
  <path d="M17.6093 8.1927C17.9636 7.84741 18.0887 7.34064 17.9359 6.86955C17.7827 6.39847 17.3837 6.06218 16.8935 5.99082L12.5352 5.35754C12.3495 5.33051 12.1891 5.21409 12.1063 5.04576L10.1578 1.09686C9.93897 0.653172 9.49492 0.377441 9.00004 0.377441C8.50553 0.377441 8.06148 0.653172 7.84269 1.09686L5.89383 5.04612C5.81093 5.21445 5.65018 5.33087 5.46456 5.3579L1.10621 5.99118C0.616381 6.06218 0.217022 6.39883 0.0638381 6.86991C-0.0889853 7.341 0.0360847 7.84777 0.39039 8.19306L3.54381 11.2668C3.67826 11.398 3.73989 11.5869 3.70817 11.7714L2.96424 16.1118C2.89828 16.4938 2.99848 16.8654 3.24574 17.1585C3.62996 17.6151 4.30072 17.7543 4.83705 17.4724L8.73476 15.423C8.89768 15.3376 9.10277 15.3383 9.26532 15.423L13.1634 17.4724C13.353 17.5722 13.5552 17.6227 13.7639 17.6227C14.1449 17.6227 14.506 17.4533 14.7543 17.1585C15.002 16.8654 15.1018 16.4931 15.0358 16.1118L14.2916 11.7714C14.2598 11.5865 14.3215 11.398 14.4559 11.2668L17.6093 8.1927Z" fill="#FEC057"/>
</symbol></svg>