<svg xmlns="http://www.w3.org/2000/svg" xmlns:xlink="http://www.w3.org/1999/xlink"><symbol id="icon-arrow" viewBox="0 0 8 12">
<path d="M1 1L6 6L1 11" stroke="currentColor" stroke-width="1.5" fill="none"/>
</symbol><symbol id="icon-basket" viewBox="0 0 16 19">
<path d="M0.630338 19H15.3728C15.4595 19.0001 15.5452 18.9822 15.6247 18.9473C15.7041 18.9125 15.7756 18.8614 15.8345 18.7973C15.8932 18.7328 15.9381 18.6568 15.9662 18.5739C15.9943 18.4911 16.0051 18.4032 15.9978 18.316L14.9111 4.69933C14.8985 4.54029 14.8267 4.39193 14.7103 4.2839C14.5938 4.17588 14.4412 4.11615 14.283 4.11666H12.0845C12.0845 3.02486 11.6543 1.97777 10.8886 1.20574C10.1229 0.433719 9.08443 0 8.00157 0C6.91871 0 5.88021 0.433719 5.11451 1.20574C4.34882 1.97777 3.91866 3.02486 3.91866 4.11666H1.72016C1.56192 4.11615 1.40932 4.17588 1.29286 4.2839C1.17641 4.39193 1.10468 4.54029 1.09202 4.69933L0.00219709 18.316C-0.00505998 18.4032 0.00570648 18.4911 0.0338166 18.5739C0.0619267 18.6568 0.10677 18.7328 0.165514 18.7973C0.2248 18.8618 0.296745 18.9131 0.376771 18.948C0.456798 18.9829 0.543152 19.0006 0.630338 19ZM8.00157 1.26667C8.75124 1.26667 9.47021 1.56693 10.0003 2.10141C10.5304 2.63589 10.8282 3.3608 10.8282 4.11666H5.17494C5.17494 3.3608 5.47274 2.63589 6.00284 2.10141C6.53294 1.56693 7.2519 1.26667 8.00157 1.26667Z" fill="currentColor"/>
</symbol><symbol id="icon-cart" viewBox="0 0 20 20">
<path d="M19.361 18.2168L14.601 13.2662C15.8249 11.8113 16.4954 9.98069 16.4954 8.07499C16.4954 3.62251 12.8729 0 8.42045 0C3.96797 0 0.345459 3.62251 0.345459 8.07499C0.345459 12.5275 3.96797 16.15 8.42045 16.15C10.092 16.15 11.6849 15.6458 13.0467 14.6888L17.8429 19.677C18.0434 19.8852 18.313 20 18.602 20C18.8755 20 19.1349 19.8957 19.3319 19.7061C19.7504 19.3034 19.7637 18.6357 19.361 18.2168ZM8.42045 2.10652C11.7115 2.10652 14.3889 4.78391 14.3889 8.07499C14.3889 11.3661 11.7115 14.0435 8.42045 14.0435C5.12937 14.0435 2.45198 11.3661 2.45198 8.07499C2.45198 4.78391 5.12937 2.10652 8.42045 2.10652Z" fill="#777777"/>
</symbol><symbol id="icon-dispatcher" viewBox="0 0 22 24">
    <path d="M18.8261 8.52566C18.8261 4.36935 15.3222 1 11 1C6.67777 1 3.17391 4.36935 3.17391 8.52566C2.05652 8.65945 1 9.36184 1 10.9924V14.9225C1 16.7621 2.33913 17.431 3.6087 17.431H4.86957C5.10967 17.431 5.30435 17.2438 5.30435 17.0129V8.91866C5.30435 8.68777 5.10967 8.50057 4.86957 8.50057H4.04348C4.04348 4.8061 7.15804 1.8111 11 1.8111C14.842 1.8111 17.9565 4.8061 17.9565 8.50057H17.1304C16.8903 8.50057 16.6957 8.68777 16.6957 8.91866V17.0004C16.6957 17.2313 16.8903 17.4185 17.1304 17.4185H17.9565C17.8348 20.2908 16.4 20.9639 13.5348 21.0851V20.805C13.5348 20.3432 13.1455 19.9688 12.6652 19.9688H9.93044C9.45016 19.9688 9.06087 20.3432 9.06087 20.805V22.1638C9.06087 22.6257 9.45016 23 9.93044 23H12.6739C13.1542 23 13.5435 22.6257 13.5435 22.1638V21.9213C16.3 21.8001 18.6826 21.2524 18.8261 17.3934C19.9435 17.2596 21 16.5572 21 14.9266V10.9966C21 9.35766 19.9478 8.65945 18.8261 8.52566ZM4.43478 9.30749V16.5823H3.58696C2.94348 16.5823 1.84783 16.3649 1.84783 14.9099V10.9799C1.84783 9.53744 2.93043 9.30749 3.58696 9.30749H4.43478ZM12.6739 21.5325V22.168H9.93044V20.8092H12.6739V21.5325ZM20.1304 14.9225C20.1304 16.3649 19.0478 16.5948 18.3913 16.5948H17.5652V9.33675H18.413C19.0565 9.33675 20.1522 9.55416 20.1522 11.0091L20.1304 14.9225Z" fill="#382F2D" stroke="#382F2D"/>
</symbol><symbol id="icon-expand" viewBox="0 0 12 7">
<path d="M1 1L6 6L11 1" stroke="#382F2D" stroke-width="1.2"/>
</symbol><symbol id="icon-favourite" viewBox="0 0 18 16">
<path d="M12.8962 0.549177C11.3946 0.541152 9.96719 1.2006 8.99998 2.34915C8.03882 1.19275 6.60741 0.531427 5.10377 0.549177C2.28503 0.549177 0 2.8342 0 5.65295C0 10.4834 8.43037 15.1998 8.77215 15.3821C8.91005 15.4742 9.0899 15.4742 9.22785 15.3821C9.56963 15.1998 18 10.5517 18 5.65295C18 2.8342 15.7149 0.549177 12.8962 0.549177Z" fill="currentColor"/>
</symbol><symbol id="icon-favourites" viewBox="0 0 22 18">
    <path d="M15.762 0.000420791C13.9268 -0.00927173 12.1821 0.787253 11 2.17455C9.82523 0.777772 8.07572 -0.0210186 6.23794 0.000420791C2.79281 0.000420791 0 2.76042 0 6.16508C0 11.9996 10.3038 17.6963 10.7215 17.9165C10.8901 18.0278 11.1099 18.0278 11.2785 17.9165C11.6962 17.6963 22 12.0821 22 6.16508C22 2.76042 19.2071 0.000420791 15.762 0.000420791ZM11 16.8157C9.38479 15.88 1.11393 10.8987 1.11393 6.16508C1.11393 3.36841 3.40803 1.10121 6.23799 1.10121C7.97098 1.07871 9.59278 1.94256 10.5266 3.38543C10.7162 3.64381 11.0819 3.70138 11.3434 3.51396C11.3933 3.47814 11.4372 3.43479 11.4734 3.38543C13.0221 1.04474 16.1977 0.387964 18.5662 1.91849C20.0162 2.85545 20.8889 4.45298 20.886 6.16502C20.8861 10.9537 12.6152 15.9075 11 16.8157Z" fill="#382F2D"/>
</symbol><symbol id="icon-fb" viewBox="0 0 9 17">
    <path d="M7.33132 2.82271H8.88328V0.119708C8.61553 0.082875 7.69469 0 6.62228 0C4.38465 0 2.85182 1.40746 2.85182 3.99429V6.375H0.382568V9.39675H2.85182V17H5.87924V9.39746H8.24861L8.62474 6.37571H5.87853V4.29392C5.87924 3.42054 6.1144 2.82271 7.33132 2.82271Z" fill="currentColor"/>
</symbol><symbol id="icon-inst" viewBox="0 0 18 18">
    <path d="M12.375 0H5.625C2.51888 0 0 2.51888 0 5.625V12.375C0 15.4811 2.51888 18 5.625 18H12.375C15.4811 18 18 15.4811 18 12.375V5.625C18 2.51888 15.4811 0 12.375 0ZM16.3125 12.375C16.3125 14.5463 14.5463 16.3125 12.375 16.3125H5.625C3.45375 16.3125 1.6875 14.5463 1.6875 12.375V5.625C1.6875 3.45375 3.45375 1.6875 5.625 1.6875H12.375C14.5463 1.6875 16.3125 3.45375 16.3125 5.625V12.375Z" fill="currentColor"/>
    <path d="M9 4.5C6.51487 4.5 4.5 6.51487 4.5 9C4.5 11.4851 6.51487 13.5 9 13.5C11.4851 13.5 13.5 11.4851 13.5 9C13.5 6.51487 11.4851 4.5 9 4.5ZM9 11.8125C7.44975 11.8125 6.1875 10.5503 6.1875 9C6.1875 7.44863 7.44975 6.1875 9 6.1875C10.5502 6.1875 11.8125 7.44863 11.8125 9C11.8125 10.5503 10.5502 11.8125 9 11.8125Z" fill="currentColor"/>
    <path d="M13.8377 4.76199C14.1688 4.76199 14.4373 4.49353 14.4373 4.16237C14.4373 3.8312 14.1688 3.56274 13.8377 3.56274C13.5065 3.56274 13.238 3.8312 13.238 4.16237C13.238 4.49353 13.5065 4.76199 13.8377 4.76199Z" fill="currentColor"/>
</symbol><symbol id="icon-master-card" viewBox="0 0 37 23">
    <path d="M25.9255 0.42334C23.0673 0.424104 20.462 1.50749 18.4985 3.28689C16.5334 1.50978 13.9296 0.425632 11.0745 0.425632C11.0508 0.425632 11.0263 0.425632 11.0034 0.425632C4.92335 0.465362 0 5.41163 0 11.5001C0 17.613 4.96155 22.5738 11.0737 22.5738C13.9289 22.5738 16.5326 21.4912 18.4969 19.7126C18.0867 19.342 17.7154 18.9317 17.3647 18.5024H19.6514C19.3068 18.9249 18.9309 19.3206 18.5267 19.6889H18.5252C18.516 19.6988 18.5061 19.7049 18.4969 19.7133C20.4628 21.4935 23.0696 22.5784 25.9293 22.5777C32.0453 22.5754 37.0015 17.6153 37 11.5001C37 11.4978 37 11.4963 37 11.4948C37.0008 5.37954 32.0415 0.421812 25.9255 0.42334ZM17.4915 4.43063H19.5964C19.9066 4.80653 20.1946 5.20229 20.4559 5.61639H16.7007C16.9429 5.22063 17.2088 4.8134 17.4915 4.43063ZM16.0467 6.77923H21.0946C21.2742 7.16277 21.4331 7.55929 21.5721 7.96575H15.4485C15.5096 7.85115 15.7235 7.38968 16.0467 6.77923ZM4.52071 14.3209L5.19229 10.0867L3.67723 14.3209H2.86508L2.75964 10.0867L2.04223 14.3209H0.904601L1.8474 8.70533H3.56798L3.62833 12.1511L4.79041 8.70533H6.65691L5.7271 14.3209H4.52071ZM8.54328 14.3117L8.58225 13.8632C8.56391 13.8655 8.20482 14.4049 7.3728 14.4049C6.93731 14.4049 6.23441 14.1673 6.23441 13.1344C6.23441 11.821 7.30557 11.3855 8.32553 11.3855C8.48598 11.3855 8.83208 11.4145 8.83208 11.4145C8.83208 11.4145 8.87105 11.3343 8.87105 11.1173C8.87105 10.7605 8.55016 10.7116 8.11084 10.7116C7.33689 10.7116 6.82576 10.9187 6.82576 10.9187L6.9969 9.90255C6.9969 9.90255 7.61729 9.64278 8.42486 9.64278C8.84278 9.64278 10.0446 9.68709 10.0446 11.0646L9.58158 14.3117H8.54328ZM12.9311 12.8815C12.9311 14.4485 11.4129 14.3812 11.1478 14.3812C10.1584 14.3812 9.85281 14.2445 9.82454 14.2368L9.98193 13.2054C9.98346 13.1962 10.4785 13.385 11.0294 13.385C11.3472 13.385 11.7598 13.3536 11.7598 12.9739C11.7598 12.4055 10.2837 12.5415 10.2837 11.1914C10.2837 10.0003 11.1685 9.65195 12.041 9.65195C12.7148 9.65195 13.1289 9.74439 13.1289 9.74439L12.9799 10.785C12.9799 10.785 12.3405 10.7323 12.1747 10.7323C11.7552 10.7323 11.5268 10.824 11.5268 11.1173C11.526 11.7072 12.9311 11.4184 12.9311 12.8815ZM14.754 13.2925C14.8587 13.2925 14.9771 13.2566 15.0581 13.2566L14.9106 14.2582C14.7922 14.2911 14.4568 14.4103 14.0267 14.4133C13.4773 14.4179 13.0869 14.1108 13.0869 13.414C13.0869 12.9464 13.757 9.09345 13.7829 9.06824H14.9618L14.8419 9.75738H15.4302L15.2797 10.8675H14.6554L14.3239 12.9128C14.2986 13.0755 14.3437 13.2925 14.754 13.2925ZM17.3471 9.6275C18.6413 9.6275 19.0287 10.5749 19.0287 11.3519C19.0287 11.6629 18.8728 12.4269 18.8728 12.4269H16.4769C16.4769 12.4269 16.2553 13.3704 17.5213 13.3704C18.1149 13.3704 18.7735 13.0801 18.7735 13.0801L18.5657 14.2162C18.5657 14.2162 18.1852 14.4103 17.3204 14.4103C16.3829 14.4103 15.2835 14.0137 15.2835 12.3482C15.2842 10.9049 16.1613 9.6275 17.3471 9.6275ZM20.4696 17.3617H16.541C16.3019 16.9797 16.0788 16.5877 15.887 16.1759H21.1152C20.9227 16.5854 20.7073 16.9812 20.4696 17.3617ZM20.2061 14.3293H18.9958L19.7316 9.75891H20.8295L20.7241 10.4213C20.7241 10.4213 21.1152 9.70084 21.6432 9.70084C21.7967 9.70084 21.8709 9.71612 21.8709 9.71612C21.7142 10.0355 21.5759 10.3281 21.4323 11.0837C20.6133 10.7934 20.5506 12.3772 20.2061 14.3293ZM24.8169 14.2582C24.8169 14.2582 24.1828 14.4202 23.7855 14.4202C22.3782 14.4202 21.6638 13.4491 21.6638 11.9784C21.6638 9.76044 22.9879 8.57926 24.3486 8.57926C24.9636 8.57926 25.6764 8.86806 25.6764 8.86806L25.4839 10.1172C25.4839 10.1172 25.0018 9.7803 24.4021 9.7803C23.5998 9.7803 22.8801 10.5459 22.8801 11.9371C22.8801 12.6225 23.2155 13.2612 24.0529 13.2612C24.451 13.2612 25.0278 12.9716 25.0278 12.9716L24.8169 14.2582ZM27.6553 14.314L27.695 13.8625C27.6759 13.8648 27.3168 14.4042 26.4855 14.4042C26.0501 14.4042 25.3472 14.1665 25.3472 13.1336C25.3472 11.8202 26.4183 11.3847 27.4375 11.3847C27.598 11.3847 27.9448 11.4138 27.9448 11.4138C27.9448 11.4138 27.9846 11.3343 27.9846 11.1173C27.9846 10.7605 27.6637 10.7116 27.2236 10.7116C26.4496 10.7116 25.9393 10.9187 25.9393 10.9187L26.1104 9.90255C26.1104 9.90255 26.7308 9.64278 27.5391 9.64278C27.9563 9.64278 29.1589 9.68709 29.1581 11.0646L28.6951 14.3117C28.6943 14.314 27.6553 14.314 27.6553 14.314ZM30.1055 14.3293H28.8953L29.631 9.75891H30.7297L30.6242 10.4213C30.6242 10.4213 31.0162 9.70084 31.5441 9.70084C31.6977 9.70084 31.771 9.71612 31.771 9.71612C31.6152 10.0355 31.4754 10.3281 31.3325 11.0837C30.5127 10.7934 30.45 12.3772 30.1055 14.3293ZM33.7185 14.3171L33.7697 13.8961C33.7697 13.8961 33.3785 14.3896 32.6711 14.3896C31.6908 14.3896 31.2102 13.443 31.2102 12.4758C31.2102 10.9798 32.1103 9.67563 33.1906 9.67563C33.8859 9.67716 34.3297 10.2907 34.3297 10.2907L34.5849 8.71297L35.7669 8.71067L34.8653 14.3171H33.7185ZM36.0503 14.1589C36.019 14.2154 35.9747 14.259 35.9181 14.2926C35.8624 14.3239 35.8028 14.34 35.7401 14.34C35.679 14.34 35.6202 14.3239 35.5636 14.2926C35.5071 14.259 35.4628 14.2154 35.4315 14.1589C35.3994 14.1016 35.3841 14.0435 35.3841 13.9817C35.3841 13.919 35.4001 13.8594 35.4315 13.8029C35.4628 13.7463 35.5094 13.7005 35.5652 13.6699C35.6232 13.6386 35.6805 13.6226 35.7401 13.6226C35.8013 13.6226 35.8593 13.6386 35.9159 13.6699C35.9739 13.7013 36.0182 13.7448 36.0503 13.8029C36.0832 13.8602 36.0977 13.9198 36.0977 13.9817C36.0977 14.0435 36.0824 14.1024 36.0503 14.1589Z" fill="#382F2D"/>
    <path d="M35.9556 17.5382C35.9479 17.5328 35.9411 17.5244 35.9288 17.5198C35.9166 17.5152 35.8975 17.5129 35.8677 17.5129H35.7959V17.6275H35.8723C35.9082 17.6275 35.9319 17.6245 35.9456 17.6115C35.9586 17.6008 35.9647 17.5878 35.9647 17.5695C35.9647 17.5573 35.9617 17.5488 35.9556 17.5382Z" fill="#382F2D"/>
    <path d="M36.2024 17.4694C36.1696 17.4098 36.1245 17.3678 36.0672 17.3364C36.0099 17.3051 35.9518 17.2891 35.8922 17.2891C35.8311 17.2891 35.773 17.3051 35.7165 17.3364C35.66 17.3678 35.6134 17.4113 35.582 17.4694C35.5492 17.5259 35.5347 17.5855 35.5347 17.6466C35.5347 17.7077 35.5507 17.7681 35.582 17.8239C35.6149 17.8804 35.6592 17.9263 35.715 17.9576C35.7715 17.9889 35.8311 18.005 35.8938 18.005C35.9549 18.005 36.0145 17.9889 36.0702 17.9576C36.126 17.9263 36.1711 17.8804 36.2024 17.8239C36.2345 17.7681 36.2498 17.7085 36.2498 17.6466C36.2498 17.5847 36.2337 17.5251 36.2024 17.4694ZM35.9824 17.8453L35.9488 17.7849C35.922 17.7375 35.8999 17.7062 35.8831 17.694C35.8724 17.6864 35.8556 17.6802 35.8342 17.6802H35.7983V17.8445H35.7356V17.4587H35.8685C35.9144 17.4587 35.9472 17.4625 35.9656 17.4701C35.9862 17.4778 36.0038 17.4885 36.0145 17.5076C36.0267 17.5251 36.032 17.5442 36.032 17.5641C36.032 17.5924 36.0214 17.6161 36.0023 17.6382C35.9824 17.6581 35.9549 17.6711 35.922 17.6734C35.9358 17.6779 35.9465 17.6856 35.9549 17.694C35.9709 17.7093 35.9893 17.7345 36.0122 17.7696L36.0596 17.8453H35.9824Z" fill="#382F2D"/>
    <path d="M8.42115 12.2617C7.55704 12.2617 7.38208 12.6498 7.38208 12.973C7.38208 13.1396 7.47758 13.4177 7.84355 13.4177C8.55332 13.4177 8.70078 12.4871 8.67786 12.2892C8.64424 12.2823 8.62285 12.2625 8.42115 12.2617Z" fill="#382F2D"/>
    <path d="M17.3518 10.6824C16.7092 10.6824 16.5854 11.4135 16.5854 11.4907H17.8942C17.8942 11.4319 18.0172 10.6824 17.3518 10.6824Z" fill="#382F2D"/>
    <path d="M33.3946 10.8101C32.8758 10.8101 32.4655 11.4121 32.4663 12.3266C32.4663 12.8844 32.665 13.2419 33.0898 13.2419C33.7285 13.2419 34.0364 12.4084 34.0364 11.7872C34.0364 11.1019 33.8186 10.8101 33.3946 10.8101Z" fill="#382F2D"/>
    <path d="M35.9969 13.8334C35.9701 13.786 35.9327 13.7493 35.8853 13.7226C35.8379 13.6958 35.7898 13.6829 35.7394 13.6829C35.6905 13.6829 35.6408 13.6966 35.5934 13.7226C35.5461 13.747 35.5086 13.7852 35.4819 13.8334C35.4552 13.8815 35.4414 13.9327 35.4414 13.9824C35.4414 14.0335 35.4552 14.084 35.4804 14.1306C35.5086 14.178 35.5445 14.2139 35.5919 14.2421C35.6393 14.2681 35.6882 14.2834 35.7394 14.2834C35.7906 14.2834 35.841 14.2681 35.8868 14.2421C35.9342 14.2154 35.9709 14.1787 35.9984 14.1306C36.0251 14.0832 36.0373 14.0335 36.0373 13.9824C36.0373 13.9319 36.0236 13.8815 35.9969 13.8334ZM35.8311 14.1787L35.7967 14.1191C35.7699 14.071 35.7485 14.0404 35.7325 14.029C35.7195 14.019 35.7042 14.0144 35.6821 14.0144H35.6469V14.178H35.5828V13.7929H35.7165C35.7615 13.7929 35.7951 13.7967 35.8143 13.8051C35.8334 13.812 35.8502 13.825 35.8631 13.8418C35.8761 13.8586 35.8807 13.8777 35.8807 13.8983C35.8807 13.9266 35.87 13.9503 35.8502 13.9717C35.8303 13.9938 35.8028 14.003 35.7707 14.0068C35.786 14.0129 35.7959 14.0198 35.8036 14.0267C35.8196 14.0427 35.8379 14.0656 35.8601 14.1023L35.9075 14.1787H35.8311Z" fill="#382F2D"/>
    <path d="M27.5347 12.2617C26.6706 12.2617 26.4956 12.6498 26.4956 12.973C26.4956 13.1396 26.5903 13.4177 26.9571 13.4177C27.6669 13.4177 27.8135 12.4871 27.7914 12.2892C27.757 12.2823 27.7356 12.2625 27.5347 12.2617Z" fill="#382F2D"/>
    <path d="M35.8051 13.8715C35.799 13.8638 35.7906 13.8577 35.7792 13.8524C35.7662 13.8485 35.7471 13.8447 35.7165 13.8447V13.8455H35.647V13.9616H35.7226C35.7585 13.9616 35.7822 13.957 35.7967 13.9456C35.8082 13.9341 35.8151 13.9196 35.8151 13.9028C35.8151 13.8898 35.812 13.8822 35.8051 13.8715Z" fill="#382F2D"/>
</symbol><symbol id="icon-search" viewBox="0 0 20 20">
    <path d="M19.0156 18.2168L14.2555 13.2662C15.4794 11.8113 16.15 9.98069 16.15 8.07499C16.15 3.62251 12.5275 0 8.07499 0C3.62251 0 0 3.62251 0 8.07499C0 12.5275 3.62251 16.15 8.07499 16.15C9.74652 16.15 11.3394 15.6458 12.7013 14.6888L17.4975 19.677C17.6979 19.8852 17.9676 20 18.2565 20C18.53 20 18.7895 19.8957 18.9864 19.7061C19.4049 19.3034 19.4183 18.6357 19.0156 18.2168ZM8.07499 2.10652C11.3661 2.10652 14.0435 4.78391 14.0435 8.07499C14.0435 11.3661 11.3661 14.0435 8.07499 14.0435C4.78391 14.0435 2.10652 11.3661 2.10652 8.07499C2.10652 4.78391 4.78391 2.10652 8.07499 2.10652Z" fill="#777777"/>
</symbol><symbol id="icon-share" viewBox="0 0 16 16">
<path d="M14.8228 2.66663C14.8228 3.86328 13.8528 4.83337 12.6561 4.83337C11.4595 4.83337 10.4895 3.86328 10.4895 2.66663C10.4895 1.47009 11.4595 0.5 12.6561 0.5C13.8528 0.5 14.8228 1.47009 14.8228 2.66663Z" fill="currentColor"/>
<path d="M12.6561 5.33337C11.1854 5.33337 9.9895 4.13733 9.9895 2.66663C9.9895 1.19604 11.1854 0 12.6561 0C14.1268 0 15.3228 1.19604 15.3228 2.66663C15.3228 4.13733 14.1268 5.33337 12.6561 5.33337ZM12.6561 1C11.7368 1 10.9895 1.74805 10.9895 2.66663C10.9895 3.58533 11.7368 4.33337 12.6561 4.33337C13.5754 4.33337 14.3228 3.58533 14.3228 2.66663C14.3228 1.74805 13.5754 1 12.6561 1Z" fill="currentColor"/>
<path d="M14.8228 13.3334C14.8228 14.5299 13.8528 15.5 12.6561 15.5C11.4595 15.5 10.4895 14.5299 10.4895 13.3334C10.4895 12.1367 11.4595 11.1666 12.6561 11.1666C13.8528 11.1666 14.8228 12.1367 14.8228 13.3334Z" fill="currentColor"/>
<path d="M12.6561 16C11.1854 16 9.9895 14.804 9.9895 13.3334C9.9895 11.8627 11.1854 10.6666 12.6561 10.6666C14.1268 10.6666 15.3228 11.8627 15.3228 13.3334C15.3228 14.804 14.1268 16 12.6561 16ZM12.6561 11.6666C11.7368 11.6666 10.9895 12.4147 10.9895 13.3334C10.9895 14.252 11.7368 15 12.6561 15C13.5754 15 14.3228 14.252 14.3228 13.3334C14.3228 12.4147 13.5754 11.6666 12.6561 11.6666Z" fill="currentColor"/>
<path d="M5.48962 8C5.48962 9.19665 4.51953 10.1666 3.32288 10.1666C2.12634 10.1666 1.15625 9.19665 1.15625 8C1.15625 6.80334 2.12634 5.83337 3.32288 5.83337C4.51953 5.83337 5.48962 6.80334 5.48962 8Z" fill="currentColor"/>
<path d="M3.32288 10.6666C1.85229 10.6666 0.65625 9.4707 0.65625 8C0.65625 6.5293 1.85229 5.33337 3.32288 5.33337C4.79358 5.33337 5.98962 6.5293 5.98962 8C5.98962 9.4707 4.79358 10.6666 3.32288 10.6666ZM3.32288 6.33337C2.40356 6.33337 1.65625 7.0813 1.65625 8C1.65625 8.9187 2.40356 9.66663 3.32288 9.66663C4.24231 9.66663 4.98962 8.9187 4.98962 8C4.98962 7.0813 4.24231 6.33337 3.32288 6.33337Z" fill="currentColor"/>
<path d="M4.89707 7.68006C4.66501 7.68006 4.43967 7.55933 4.31699 7.34339C4.13498 7.02406 4.24704 6.61671 4.56638 6.43397L10.7523 2.90736C11.0716 2.72401 11.479 2.83607 11.6617 3.15662C11.8437 3.47596 11.7317 3.88331 11.4123 4.06605L5.22629 7.59266C5.12229 7.65199 5.00901 7.68006 4.89707 7.68006Z" fill="currentColor"/>
<path d="M11.0822 13.1801C10.9701 13.1801 10.8568 13.152 10.7528 13.0927L4.56678 9.56604C4.24744 9.38403 4.1355 8.97668 4.31751 8.65661C4.49878 8.33667 4.90674 8.224 5.22681 8.40735L11.4128 11.934C11.7322 12.116 11.8441 12.5233 11.6621 12.8434C11.5388 13.0593 11.3135 13.1801 11.0822 13.1801Z" fill="currentColor"/>
</symbol><symbol id="icon-star-empty" viewBox="0 0 18 18">
<path d="M17.6092 8.19306C17.9635 7.84777 18.0886 7.341 17.9358 6.86991C17.7826 6.39883 17.3836 6.06254 16.8934 5.99118L12.535 5.3579C12.3494 5.33087 12.189 5.21445 12.1061 5.04612L10.1576 1.09686C9.93885 0.653172 9.4948 0.377441 8.99993 0.377441C8.50541 0.377441 8.06136 0.653172 7.84258 1.09686L5.89372 5.04612C5.81082 5.21445 5.65007 5.33087 5.46444 5.3579L1.10609 5.99154C0.616265 6.06254 0.217266 6.39883 0.0640822 6.86991C-0.0887412 7.341 0.0363289 7.84777 0.390634 8.19306L3.54406 11.2668C3.6785 11.398 3.74013 11.5869 3.70842 11.7714L2.96412 16.1121C2.8805 16.5998 3.07694 17.0831 3.47738 17.3744C3.87746 17.6659 4.39828 17.7038 4.83693 17.4728L8.73465 15.4233C8.90081 15.3361 9.09904 15.3361 9.2652 15.4233L13.1633 17.4728C13.3536 17.573 13.5598 17.6223 13.7648 17.6223C14.0312 17.6223 14.2965 17.5391 14.5228 17.3744C14.9233 17.0831 15.1197 16.5998 15.0361 16.1121L14.2914 11.7718C14.2597 11.5869 14.3214 11.3984 14.4558 11.2672L17.6092 8.19306ZM13.5814 11.8936L14.3257 16.234C14.3632 16.4524 14.2785 16.6611 14.099 16.7915C13.9191 16.9217 13.6953 16.9375 13.4988 16.8352L9.60077 14.7854C9.41298 14.687 9.20609 14.6372 8.99993 14.6372C8.79376 14.6372 8.58723 14.687 8.39908 14.7857L4.50173 16.8352C4.30457 16.9375 4.08074 16.9217 3.90125 16.7915C3.72175 16.6611 3.63741 16.4527 3.67453 16.234L4.41883 11.8936C4.49055 11.4748 4.35179 11.0473 4.04758 10.751L0.893798 7.67692C0.734847 7.52194 0.680782 7.30351 0.749625 7.09266C0.818107 6.88145 0.990033 6.73655 1.20954 6.70447L5.56753 6.07119C5.98815 6.01028 6.35183 5.74645 6.53961 5.36511L8.48847 1.41585C8.58651 1.21689 8.7779 1.09831 8.99957 1.09831C9.22159 1.09831 9.41262 1.21689 9.51102 1.41585L11.4599 5.36511C11.6477 5.74645 12.011 6.01028 12.4316 6.07119L16.79 6.70447C17.0095 6.73655 17.1814 6.88145 17.2499 7.09266C17.3183 7.30351 17.2646 7.52194 17.1057 7.67692L13.9523 10.7507C13.6481 11.0473 13.5093 11.4744 13.5814 11.8936Z" fill="black"/>
</symbol><symbol id="icon-star" viewBox="0 0 18 18">
  <path d="M17.6093 8.1927C17.9636 7.84741 18.0887 7.34064 17.9359 6.86955C17.7827 6.39847 17.3837 6.06218 16.8935 5.99082L12.5352 5.35754C12.3495 5.33051 12.1891 5.21409 12.1063 5.04576L10.1578 1.09686C9.93897 0.653172 9.49492 0.377441 9.00004 0.377441C8.50553 0.377441 8.06148 0.653172 7.84269 1.09686L5.89383 5.04612C5.81093 5.21445 5.65018 5.33087 5.46456 5.3579L1.10621 5.99118C0.616381 6.06218 0.217022 6.39883 0.0638381 6.86991C-0.0889853 7.341 0.0360847 7.84777 0.39039 8.19306L3.54381 11.2668C3.67826 11.398 3.73989 11.5869 3.70817 11.7714L2.96424 16.1118C2.89828 16.4938 2.99848 16.8654 3.24574 17.1585C3.62996 17.6151 4.30072 17.7543 4.83705 17.4724L8.73476 15.423C8.89768 15.3376 9.10277 15.3383 9.26532 15.423L13.1634 17.4724C13.353 17.5722 13.5552 17.6227 13.7639 17.6227C14.1449 17.6227 14.506 17.4533 14.7543 17.1585C15.002 16.8654 15.1018 16.4931 15.0358 16.1118L14.2916 11.7714C14.2598 11.5865 14.3215 11.398 14.4559 11.2668L17.6093 8.1927Z" fill="#FEC057"/>
</symbol><symbol id="icon-visa" viewBox="0 0 34 24">
    <path d="M33.1247 0.983154H0.875283C0.391289 0.983154 0 1.37505 0 1.85844V22.1423C0 22.6257 0.391289 23.0175 0.875283 23.0175H33.1247C33.6087 23.0175 34 22.6257 34 22.1423V1.85844C34 1.37505 33.6087 0.983154 33.1247 0.983154ZM2.63247 7.64169H6.26123C6.75064 7.66035 7.14494 7.81626 7.28098 8.33939L8.07018 12.1349C7.29483 10.1496 5.42627 8.49771 2.60237 7.81386L2.63247 7.64169ZM7.02334 16.2982L4.92723 9.13701C6.43399 10.1014 7.71742 11.6316 8.16951 12.6965L8.41392 13.5809L10.7063 7.72416H13.1864L9.5005 16.2964L7.02334 16.2982ZM15.0092 16.3042H12.6687L14.1322 7.71513H16.4739L15.0092 16.3042ZM19.0823 16.4331C18.033 16.4222 17.0223 16.2145 16.4745 15.9743L16.8038 14.0522L17.1053 14.1889C17.8741 14.5097 18.3719 14.6397 19.3092 14.6397C19.9816 14.6397 20.7022 14.3767 20.7088 13.8012C20.713 13.4249 20.4072 13.1565 19.4958 12.7351C18.6073 12.3245 17.431 11.6358 17.4455 10.4024C17.4581 8.73308 19.0883 7.56825 21.4017 7.56825C22.3083 7.56825 23.0349 7.75486 23.4984 7.92883L23.1824 9.79077L22.9711 9.69144C22.5401 9.51807 21.9856 9.35072 21.2193 9.36276C20.3031 9.36276 19.8781 9.74442 19.8781 10.1014C19.8733 10.5035 20.3741 10.7684 21.1928 11.1669C22.5431 11.7797 23.1673 12.5232 23.1589 13.5002C23.1408 15.2821 21.5438 16.4331 19.0823 16.4331ZM29.2257 16.3078C29.2257 16.3078 29.012 15.3206 28.9409 15.0208C28.6002 15.0208 26.2115 15.0172 25.9431 15.0172C25.8522 15.2489 25.4512 16.3078 25.4512 16.3078H22.9933L26.4686 8.43691C26.7154 7.87767 27.1338 7.72416 27.6948 7.72416H29.5032L31.3976 16.3072L29.2257 16.3078Z" fill="#382F2D"/>
    <path d="M28.0174 10.781L27.8597 10.0405C27.7405 10.3638 27.5352 10.8833 27.5484 10.8604C27.5484 10.8604 26.8086 12.7669 26.616 13.2611H28.5598C28.4659 12.8307 28.0174 10.781 28.0174 10.781Z" fill="#382F2D"/>
</symbol><symbol id="icon-vk" viewBox="0 0 20 11">
    <path d="M19.8217 9.81131C19.768 9.72455 19.4355 9.02805 17.8353 7.5965C16.1602 6.09746 16.3852 6.34087 18.4029 3.74889C19.6317 2.17033 20.123 1.20632 19.9692 0.794205C19.823 0.401371 18.9192 0.505002 18.9192 0.505002L15.9139 0.521872C15.9139 0.521872 15.6914 0.492952 15.5252 0.588148C15.3639 0.682139 15.2601 0.899041 15.2601 0.899041C15.2601 0.899041 14.7839 2.12092 14.1488 3.15964C12.81 5.35156 12.2737 5.46724 12.0549 5.33107C11.5461 5.01416 11.6736 4.05617 11.6736 3.37655C11.6736 1.25211 12.0074 0.366426 11.0223 0.137473C10.6948 0.0615577 10.4548 0.0109472 9.61848 0.0025121C8.54591 -0.008333 7.63709 0.00612713 7.1233 0.248334C6.78078 0.409806 6.51701 0.770105 6.67827 0.79059C6.87703 0.815895 7.32707 0.907476 7.56583 1.22078C7.87461 1.62446 7.86336 2.53304 7.86336 2.53304C7.86336 2.53304 8.04087 5.03344 7.44958 5.34433C7.0433 5.55762 6.487 5.12261 5.29317 3.13313C4.68187 2.1149 4.21934 0.988212 4.21934 0.988212C4.21934 0.988212 4.13058 0.77854 3.97182 0.666474C3.77931 0.530307 3.50929 0.486927 3.50929 0.486927L0.651577 0.503797C0.651577 0.503797 0.222795 0.515847 0.0652839 0.695394C-0.0747264 0.855661 0.054033 1.18583 0.054033 1.18583C0.054033 1.18583 2.2917 6.23122 4.82438 8.775C7.1483 11.1067 9.786 10.9537 9.786 10.9537H10.9811C10.9811 10.9537 11.3424 10.9151 11.5261 10.7235C11.6961 10.5476 11.6899 10.2174 11.6899 10.2174C11.6899 10.2174 11.6661 8.67137 12.4112 8.44362C13.145 8.21949 14.0876 9.93783 15.0864 10.5994C15.8414 11.0995 16.4152 10.9898 16.4152 10.9898L19.0867 10.9537C19.0867 10.9537 20.4843 10.8705 19.8217 9.81131Z" fill="currentColor"/>
</symbol></svg>